<svg viewBox="0 0 64 64" xmlns="http://www.w3.org/2000/svg"><defs><style>.cls-7{fill:red}.cls-8{fill:#d39953}</style></defs><g data-name="Layer 25" id="Layer_25"><path d="M32 53a43.54 43.54 0 0 1-26.38-8.84l-4.33 7.08a1.98 1.98 0 0 0 .63 2.7 54.44 54.44 0 0 0 60.16 0 1.98 1.98 0 0 0 .63-2.7l-4.33-7.08A43.54 43.54 0 0 1 32 53Z" style="fill:#8a490e"/><path d="m62.71 51.24-4.33-7.08c-.68.52-1.38 1-2.09 1.48l3.42 5.6a1.98 1.98 0 0 1-.63 2.7 53.97 53.97 0 0 1-28.58 9.03L32 63a54 54 0 0 0 30.09-9.07 1.98 1.98 0 0 0 .62-2.7Z" style="fill:#a16d3e"/><path d="M58.38 44.16a43.8 43.8 0 0 1-52.77 0l20.6-33.68L32 1l5.8 9.48Z" style="fill:#f6b361"/><path d="M37.8 10.48 32 1l-1.5 2.45 4.3 7.03 20.59 33.68a43.52 43.52 0 0 1-24.89 8.8c.5.03 1 .04 1.5.04a43.55 43.55 0 0 0 26.39-8.84Z" style="fill:#f8c281"/><path d="M37.65 10.48A6.88 6.88 0 0 1 35 11a6.99 6.99 0 0 1-3-.68 6.99 6.99 0 0 1-3 .68 6.88 6.88 0 0 1-2.65-.52L32 1Z" style="fill:#ffff97"/><path d="m32 1-1.5 2.52 4.15 6.96a6.76 6.76 0 0 1-1.14.35 6.92 6.92 0 0 0 4.14-.35Z" style="fill:#ffffac"/><path d="m63.56 50.72-4.32-7.08L32.87.5l-.01-.01V.48a.8.8 0 0 0-.12-.13L32.7.29a1.07 1.07 0 0 0-1.4 0l-.05.06a.85.85 0 0 0-.1.13l-.02.02L4.76 43.64.43 50.72a2.99 2.99 0 0 0 .93 4.04 55.45 55.45 0 0 0 61.28 0 2.99 2.99 0 0 0 .92-4.04Zm-6.86-6.57-.67.47-.74.5a46.12 46.12 0 0 1-2.92 1.73l-.73.4-.78.38-.74.37c-.24.12-.52.24-.79.35l-.76.33-.8.33-.77.3-.82.29-.77.27-.83.26-.78.23-.86.23-.78.2-.88.2-.77.17-.92.17-.75.13-.96.14-.73.1-1.01.1-.7.06-1.13.07-.58.03Q32.87 52 32 52t-1.73-.03l-.59-.04-1.13-.07-.7-.06-1-.1-.74-.1-.95-.14-.76-.13c-.3-.06-.61-.1-.91-.17L22.7 51c-.29-.06-.59-.12-.88-.2l-.78-.2-.85-.23-.78-.23-.83-.26-.78-.27-.82-.3-.77-.3-.8-.31-.76-.34-.78-.35a29.03 29.03 0 0 1-1.52-.75 38.27 38.27 0 0 1-2.95-1.69l-.7-.45a41.1 41.1 0 0 1-1.41-.96l-.36-.25 19.72-32.25a8.04 8.04 0 0 0 5.34-.24 7.99 7.99 0 0 0 5.34.24L57.05 43.9l-.35.26ZM36.14 9.89a6.07 6.07 0 0 1-3.71-.47 1 1 0 0 0-.86 0 6.07 6.07 0 0 1-3.7.47L32 2.95ZM61.53 53.1a53.44 53.44 0 0 1-59.06 0 .98.98 0 0 1-.33-1.34l3.76-6.15.32.22.67.47.81.54.69.44.82.5.7.4.85.47.72.39q.42.22.85.42a35.63 35.63 0 0 0 3.23 1.43l.76.3.9.32c.25.1.5.18.77.27l.9.28.78.23c.31.1.62.17.93.25l.78.2.95.22.78.16c.32.07.65.13.97.18l.77.14 1.02.14.75.1 1.07.1.7.08 1.2.07.6.03q.9.04 1.81.04t1.8-.04l.6-.03 1.2-.07.7-.07 1.08-.1c.25-.04.5-.08.75-.1l1.01-.15.77-.14c.33-.05.65-.1.98-.17l.78-.17.95-.22.78-.2.92-.24.78-.24.91-.28a38.85 38.85 0 0 0 1.67-.59l.76-.3a44.95 44.95 0 0 0 1.63-.68l.86-.39.74-.35.85-.43.72-.39.84-.46.7-.41.83-.5.69-.44.8-.54c.23-.15.46-.3.68-.47l.32-.21 3.75 6.14a.98.98 0 0 1-.32 1.34Z"/><circle class="cls-7" cx="32" cy="20" r="3"/><path d="M32 24a4 4 0 1 1 4-4 4 4 0 0 1-4 4Zm0-6a2 2 0 1 0 2 2 2 2 0 0 0-2-2Z"/><circle class="cls-7" cx="18" cy="41" r="3"/><path d="M18 45a4 4 0 1 1 4-4 4 4 0 0 1-4 4Zm0-6a2 2 0 1 0 2 2 2 2 0 0 0-2-2Z"/><circle class="cls-7" cx="46" cy="41" r="3"/><path d="M46 45a4 4 0 1 1 4-4 4 4 0 0 1-4 4Zm0-6a2 2 0 1 0 2 2 2 2 0 0 0-2-2Z"/><circle class="cls-7" cx="32" cy="44" r="3"/><path d="M32 48a4 4 0 1 1 4-4 4 4 0 0 1-4 4Zm0-6a2 2 0 1 0 2 2 2 2 0 0 0-2-2Z"/><circle class="cls-7" cx="24" cy="30" r="3"/><path d="M24 34a4 4 0 1 1 4-4 4 4 0 0 1-4 4Zm0-6a2 2 0 1 0 2 2 2 2 0 0 0-2-2Z"/><circle class="cls-7" cx="40" cy="30" r="3"/><path d="M40 34a4 4 0 1 1 4-4 4 4 0 0 1-4 4Zm0-6a2 2 0 1 0 2 2 2 2 0 0 0-2-2Z"/><path class="cls-8" d="M27 38h-2a1 1 0 0 1 0-2h2a1 1 0 0 1 0 2ZM39 38h-2a1 1 0 0 1 0-2h2a1 1 0 0 1 0 2ZM33 30h-2a1 1 0 0 1 0-2h2a1 1 0 0 1 0 2ZM25 24h-2a1 1 0 0 1 0-2h2a1 1 0 0 1 0 2ZM41 24h-2a1 1 0 0 1 0-2h2a1 1 0 0 1 0 2Z"/></g></svg>